<?xml version="1.0" encoding="iso-8859-1"?>
<!-- Generator: Adobe Illustrator 19.0.0, SVG Export Plug-In . SVG Version: 6.00 Build 0)  -->
<svg version="1.1" id="Capa_1" xmlns="http://www.w3.org/2000/svg" xmlns:xlink="http://www.w3.org/1999/xlink" x="0px" y="0px"
	 viewBox="0 0 512 512" style="enable-background:new 0 0 512 512;" xml:space="preserve">
<path style="fill:#88D652;" d="M241,181c0,33-27,60-60,60H60c-33,0-60-27-60-60V60C0,27,27,0,60,0h121c33,0,60,27,60,60V181z"/>
<path style="fill:#FF6E37;" d="M512,452c0,33-27,60-60,60H331c-33,0-60-27-60-60V331c0-33,27-60,60-60h121c33,0,60,27,60,60V452z"/>
<path style="fill:#4F565B;" d="M17.625,494.375C28.5,505.25,43.5,512,60,512h121c33,0,60-27,60-60V331c0-49.626,40.374-90,90-90h121
	c33,0,60-27,60-60V60c0-16.5-6.75-31.5-17.625-42.375h-15l-461.75,461.75V494.375z"/>
<path style="fill:#697176;" d="M452,0H331c-33,0-60,27-60,60v121c0,49.626-40.374,90-90,90H60c-33,0-60,27-60,60v121
	c0,16.5,6.75,31.5,17.625,42.375l476.75-476.75C483.5,6.75,468.5,0,452,0z"/>
<g>
</g>
<g>
</g>
<g>
</g>
<g>
</g>
<g>
</g>
<g>
</g>
<g>
</g>
<g>
</g>
<g>
</g>
<g>
</g>
<g>
</g>
<g>
</g>
<g>
</g>
<g>
</g>
<g>
</g>
</svg>
